<svg height="814" width="720" xmlns="http://www.w3.org/2000/svg">
<rect height="814" fill="#555" width="720"></rect>
<text fill="#7f7" font-family="Courier New" font-size="12" xml:space="preserve">
<tspan x="10" y="26">17 megabytes installed</tspan>
<tspan x="10" y="42"></tspan>
<tspan x="10" y="58">node_modules</tspan>
<tspan x="10" y="74">└─┬ webpack-visualizer-plugin@0.1.11 </tspan>
<tspan x="10" y="90">  ├── d3@3.5.17 </tspan>
<tspan x="10" y="106">  ├─┬ mkdirp@0.5.1 </tspan>
<tspan x="10" y="122">  │ └── minimist@0.0.8 </tspan>
<tspan x="10" y="138">  ├─┬ react@0.14.9 </tspan>
<tspan x="10" y="154">  │ ├─┬ envify@3.4.1 </tspan>
<tspan x="10" y="170">  │ │ ├─┬ jstransform@11.0.3 </tspan>
<tspan x="10" y="186">  │ │ │ ├── base62@1.1.2 </tspan>
<tspan x="10" y="202">  │ │ │ ├─┬ commoner@0.10.8 </tspan>
<tspan x="10" y="218">  │ │ │ │ ├─┬ commander@2.9.0 </tspan>
<tspan x="10" y="234">  │ │ │ │ │ └── graceful-readlink@1.0.1 </tspan>
<tspan x="10" y="250">  │ │ │ │ ├─┬ detective@4.5.0 </tspan>
<tspan x="10" y="266">  │ │ │ │ │ ├── acorn@4.0.11 </tspan>
<tspan x="10" y="282">  │ │ │ │ │ └── defined@1.0.0 </tspan>
<tspan x="10" y="298">  │ │ │ │ ├─┬ glob@5.0.15 </tspan>
<tspan x="10" y="314">  │ │ │ │ │ ├─┬ inflight@1.0.6 </tspan>
<tspan x="10" y="330">  │ │ │ │ │ │ └── wrappy@1.0.2 </tspan>
<tspan x="10" y="346">  │ │ │ │ │ ├── inherits@2.0.3 </tspan>
<tspan x="10" y="362">  │ │ │ │ │ ├─┬ minimatch@3.0.3 </tspan>
<tspan x="10" y="378">  │ │ │ │ │ │ └─┬ brace-expansion@1.1.7 </tspan>
<tspan x="10" y="394">  │ │ │ │ │ │   ├── balanced-match@0.4.2 </tspan>
<tspan x="10" y="410">  │ │ │ │ │ │   └── concat-map@0.0.1 </tspan>
<tspan x="10" y="426">  │ │ │ │ │ ├── once@1.4.0 </tspan>
<tspan x="10" y="442">  │ │ │ │ │ └── path-is-absolute@1.0.1 </tspan>
<tspan x="10" y="458">  │ │ │ │ ├── graceful-fs@4.1.11 </tspan>
<tspan x="10" y="474">  │ │ │ │ ├── iconv-lite@0.4.15 </tspan>
<tspan x="10" y="490">  │ │ │ │ ├── private@0.1.7 </tspan>
<tspan x="10" y="506">  │ │ │ │ ├── q@1.5.0 </tspan>
<tspan x="10" y="522">  │ │ │ │ └─┬ recast@0.11.23 </tspan>
<tspan x="10" y="538">  │ │ │ │   ├── ast-types@0.9.6 </tspan>
<tspan x="10" y="554">  │ │ │ │   ├── esprima@3.1.3 </tspan>
<tspan x="10" y="570">  │ │ │ │   └── source-map@0.5.6 </tspan>
<tspan x="10" y="586">  │ │ │ ├── esprima-fb@15001.1.0-dev-harmony-fb </tspan>
<tspan x="10" y="602">  │ │ │ ├── object-assign@2.1.1 </tspan>
<tspan x="10" y="618">  │ │ │ └─┬ source-map@0.4.4 </tspan>
<tspan x="10" y="634">  │ │ │   └── amdefine@1.0.1 </tspan>
<tspan x="10" y="650">  │ │ └── through@2.3.8 </tspan>
<tspan x="10" y="666">  │ └─┬ fbjs@0.6.1 </tspan>
<tspan x="10" y="682">  │   ├── core-js@1.2.7 </tspan>
<tspan x="10" y="698">  │   ├─┬ loose-envify@1.3.1 </tspan>
<tspan x="10" y="714">  │   │ └── js-tokens@3.0.1 </tspan>
<tspan x="10" y="730">  │   ├─┬ promise@7.1.1 </tspan>
<tspan x="10" y="746">  │   │ └── asap@2.0.5 </tspan>
<tspan x="10" y="762">  │   ├── ua-parser-js@0.7.12 </tspan>
<tspan x="10" y="778">  │   └── whatwg-fetch@0.9.0 </tspan>
<tspan x="10" y="794">  └── react-dom@0.14.9</tspan>
</text>
</svg>
